<svg width="95" height="54" viewBox="0 0 95 54" fill="none" xmlns="http://www.w3.org/2000/svg">
<path d="M11.6385 39.7838L7.71034 50.8848L4.17167 41.0534C4.0619 40.7056 3.85043 40.3986 3.56459 40.1723C3.27875 39.946 2.93168 39.8107 2.56823 39.7838H0L0.0837972 40.0106C0.414479 40.0323 0.730763 40.1541 0.990798 40.3598C1.25083 40.5654 1.44236 40.8453 1.54003 41.1623L6.15106 53.9942H8.06704L13.088 39.7827H11.6385V39.7838Z" fill="white"/>
<path d="M17.3435 52.4366C17.3435 51.9559 17.3435 39.981 17.3435 39.981H14.8409V52.4445C14.8409 52.4445 14.7854 53.9952 16.1103 53.9952H18.0478V53.8093C18.0478 53.8093 17.3435 53.6767 17.3435 52.4366Z" fill="white"/>
<path d="M32.1285 52.3949V40.0391L32.1376 39.9756H30.764H30.7527V50.3681L23.279 39.9835H19.7041L19.729 40.132C20.0047 40.3609 20.2194 40.6547 20.3537 40.9871C20.4881 41.3194 20.5381 41.68 20.499 42.0364V53.5987C20.499 53.618 20.5081 53.6362 20.5081 53.6543V53.7676C20.5081 53.7892 20.499 53.8141 20.499 53.8413V54H21.8885V53.974V42.1985L30.3937 53.9955H32.9019L32.8883 53.8153C32.6342 53.6818 32.426 53.4751 32.2905 53.2219C32.1551 52.9687 32.0986 52.6806 32.1285 52.3949Z" fill="white"/>
<path d="M38.8755 39.981H33.8523L33.8715 40.1295C33.8715 40.1295 34.5781 40.3698 34.6563 41.9522V52.4445C34.6563 52.4445 34.6302 53.9952 35.9155 53.9952H37.9685V53.824C37.715 53.6982 37.5045 53.5 37.3634 53.2545C37.2224 53.0089 37.1571 52.7271 37.1758 52.4445V47.4409H39.2934C39.7893 47.4477 43.944 47.5838 43.944 43.843C43.944 40.1703 40.4688 39.981 38.8744 39.981H38.8755ZM38.7521 46.2654C37.9991 46.2654 37.1747 46.2654 37.1747 46.2654V41.1757H38.8246C40.2672 41.1757 41.429 41.5373 41.429 43.8396C41.429 46.0648 39.6682 46.2654 38.7476 46.2654" fill="white"/>
<path d="M53.9078 52.5419H48.5992V47.5713H54.1569L54.1716 47.4999V46.1849L54.1569 46.1112H48.5992V41.4353H53.1162C54.1546 41.4353 54.4751 41.7844 54.5668 42.0338H54.7865L54.5306 40.5602C54.3947 40.3599 54.2071 40.2002 53.9877 40.0982C53.7684 39.9962 53.5255 39.9557 53.285 39.9809H45.27L45.2927 40.1294C45.2927 40.1294 46.0355 40.3811 46.0763 42.0984V53.9952H54.0199C54.3762 54.0035 54.7245 53.8886 55.0062 53.6698L55.2213 51.9321H55.0447C54.8759 52.585 54.0187 52.5419 53.9066 52.5419" fill="white"/>
<path d="M68.7702 52.4369L65.3142 41.5797L65.381 41.7882C65.0809 40.8542 64.8884 40.2636 65.1375 39.9859L65.1149 39.8306H61.6849L59.3896 46.8156C58.29 46.8802 57.2042 46.5449 56.3322 45.8713L56.3027 46.0629C56.288 46.0538 56.9414 47.3416 56.9708 47.3676C57.5851 47.8035 58.2972 48.0811 59.0442 48.1759L57.1962 53.9944L57.2449 53.9888H58.7407L60.608 48.2722H63.525C63.8739 48.2415 64.2224 48.3338 64.5105 48.5331C64.7985 48.7325 65.0079 49.0263 65.1024 49.3638L66.1091 52.4358C66.1091 52.4358 66.5247 53.9888 67.6231 53.9888H69.5923L69.5844 53.8505C69.1212 53.6238 68.7917 52.539 68.7657 52.4358L68.7702 52.4369ZM63.4435 46.8201H60.933L62.6576 41.5162L64.4898 47.0174C64.1714 46.8531 63.8124 46.7846 63.4559 46.8201" fill="white"/>
<path d="M80.9092 50.5688C80.4684 49.7338 79.9721 48.9294 79.4235 48.1611C79.0732 47.7161 78.6349 47.3483 78.136 47.0808C78.7479 46.9066 79.3015 46.5703 79.7385 46.1074C80.1754 45.6445 80.4794 45.0722 80.6186 44.4508C80.7577 43.8294 80.7268 43.1819 80.529 42.5766C80.3312 41.9713 79.9739 41.4307 79.4949 41.0117C78.5797 40.2838 77.4304 39.9157 76.2631 39.9767H70.5808L70.6057 40.1252C70.6057 40.1252 71.3123 40.369 71.3837 41.9628V42.3697C71.3837 42.432 71.395 42.4967 71.395 42.5613V51.3691C71.395 51.4303 71.3837 51.4926 71.3837 51.555V53.9955H73.8907V47.855H75.0356C76.459 47.855 77.0274 48.8752 78.1677 50.8805C78.5892 51.6419 79.0488 52.3815 79.5447 53.0966C79.7213 53.3901 79.9752 53.6291 80.2787 53.7875C80.5821 53.9459 80.9233 54.0175 81.2648 53.9944H83.3574V53.9887L83.3653 53.8255C82.6214 53.6283 81.9555 52.4006 80.9047 50.5676L80.9092 50.5688ZM75.8939 46.3655H73.8862V41.1511H75.6561C75.9989 41.1206 76.3442 41.1649 76.6682 41.2809C76.9922 41.397 77.2872 41.5821 77.5327 41.8234C77.7783 42.0647 77.9686 42.3565 78.0906 42.6786C78.2125 43.0008 78.2632 43.3455 78.2391 43.6892C78.2711 44.0208 78.2349 44.3555 78.1327 44.6725C78.0305 44.9896 77.8644 45.2823 77.6447 45.5326C77.4251 45.7829 77.1565 45.9854 76.8555 46.1277C76.5546 46.27 76.2277 46.349 75.895 46.3598" fill="white"/>
<path d="M94.2189 52.542H87.7101L87.6874 52.5295V42.5893C87.6874 42.4759 87.6987 42.9781 87.6987 41.6439C87.6987 40.0206 86.4316 39.981 86.4316 39.981H84.3843L84.4092 40.1295C84.4092 40.1295 85.0886 40.3562 85.1837 41.8638V42.29C85.1837 42.3308 85.1917 42.3739 85.1917 42.4113V51.2531C85.1917 51.2951 85.1837 51.3325 85.1837 51.3767V53.9952H94.0627L94.2473 52.5329L94.2189 52.542Z" fill="white"/>
<path d="M64.5533 0.00289276C54.902 1.1502 45.0356 4.30023 44.3814 13.8341C44.0779 18.2933 45.4629 21.6428 47.0248 24.8766C43.1024 21.0503 37.4384 17.9812 29.4993 18.7297C34.3352 20.088 40.0435 22.686 43.1113 26.1193C43.7596 26.8504 44.7085 28.1162 44.4845 29.1913C44.1132 31.0033 40.7449 30.6334 38.7056 30.7316C42.9344 32.4107 47.6614 35.4365 53.6908 35.2399C56.7056 35.1446 58.9187 33.3297 58.6859 29.9629C58.2616 23.9143 53.7675 18.7442 53.2959 11.9095C52.7714 4.19909 58.238 1.36983 64.3647 0.104034C64.4885 0.141603 64.683 0.104047 64.7331 0.0635879C64.7743 0.0346885 64.736 0 64.568 0H64.5533V0.00289276Z" fill="url(#paint0_linear_6442_37485)"/>
<defs>
<linearGradient id="paint0_linear_6442_37485" x1="47.1238" y1="0" x2="47.1238" y2="35.2491" gradientUnits="userSpaceOnUse">
<stop stop-color="#CF873C"/>
<stop offset="1" stop-color="#F2A842"/>
</linearGradient>
</defs>
</svg>
